<svg version="1.1" viewBox="0.0 0.0 664.6430446194225 515.7139107611548" fill="none" stroke="none" stroke-linecap="square" stroke-miterlimit="10" xmlns:xlink="http://www.w3.org/1999/xlink" xmlns="http://www.w3.org/2000/svg"><clipPath id="p.0"><path d="m0 0l664.64307 0l0 515.7139l-664.64307 0l0 -515.7139z" clip-rule="nonzero"/></clipPath><g clip-path="url(#p.0)"><path fill="#000000" fill-opacity="0.0" d="m0 0l664.64307 0l0 515.7139l-664.64307 0z" fill-rule="evenodd"/><defs><radialGradient id="p.1" gradientUnits="userSpaceOnUse" gradientTransform="matrix(21.852278225583117 0.0 0.0 21.852278225583117 0.0 0.0)" spreadMethod="pad" cx="16.15488559500021" cy="12.674537829646823" fx="16.15488559500021" fy="12.674537829646823" r="21.852277755737305"><stop offset="0.0" stop-color="#000000"/><stop offset="0.67" stop-color="#000000" stop-opacity="0.0"/><stop offset="0.6700001" stop-color="#ffffff" stop-opacity="0.0"/><stop offset="1.0" stop-color="#ffffff" stop-opacity="0.0"/></radialGradient></defs><path fill="url(#p.1)" d="m-20.359581 -20.71391l0 595.3629l746.7612 0l0 -589.9753z" fill-rule="evenodd"/><path stroke="#000000" stroke-width="1.0" stroke-linejoin="round" stroke-linecap="butt" d="m-20.359581 -20.71391l0 595.3629l746.7612 0l0 -589.9753z" fill-rule="evenodd"/><path fill="#45818e" d="m-0.9973753 373.81628l13.698163 -16.438324l30.821522 -19.178497l65.068245 -38.35431l42.46456 -32.19162l23.288712 -5.480316l26.711288 -39.72702l97.26248 2.0551147l200.0 39.041992l41.77951 1.3700867l65.753296 41.094482l43.83728 49.314972l2.0524902 45.892365l6.165344 32.876648l10.958008 24.656158l0 65.75333l-113.69818 -3.4226074l-4.795288 -21.233582l-2.0524902 20.548523l-373.97375 0l-24.656158 -104.79526l-63.015755 4.795288l-4.107605 25.341187l-15.755913 7.5354614l4.7952805 20.545929l-10.958008 12.330688l-23.288712 32.876648l-39.03937 1.3700562z" fill-rule="evenodd"/><path stroke="#000000" stroke-width="1.0" stroke-linejoin="round" stroke-linecap="butt" d="m-0.9973753 373.81628l13.698163 -16.438324l30.821522 -19.178497l65.068245 -38.35431l42.46456 -32.19162l23.288712 -5.480316l26.711288 -39.72702l97.26248 2.0551147l200.0 39.041992l41.77951 1.3700867l65.753296 41.094482l43.83728 49.314972l2.0524902 45.892365l6.165344 32.876648l10.958008 24.656158l0 65.75333l-113.69818 -3.4226074l-4.795288 -21.233582l-2.0524902 20.548523l-373.97375 0l-24.656158 -104.79526l-63.015755 4.795288l-4.107605 25.341187l-15.755913 7.5354614l4.7952805 20.545929l-10.958008 12.330688l-23.288712 32.876648l-39.03937 1.3700562z" fill-rule="evenodd"/><path fill="#ffe599" d="m222.97375 212.17323l65.06824 8.220474l-4.795288 59.58792l36.986877 73.973755l50.68506 42.46457l-3.4252014 49.31494l-4.107605 64.38321l-2.0551147 12.328064l-187.67192 -3.4225464l-13.013123 -51.370087l1.3700714 -68.49344l37.67192 -110.27557l-2.740158 -63.013138z" fill-rule="evenodd"/><path stroke="#000000" stroke-width="1.0" stroke-linejoin="round" stroke-linecap="butt" d="m222.97375 212.17323l65.06824 8.220474l-4.795288 59.58792l36.986877 73.973755l50.68506 42.46457l-3.4252014 49.31494l-4.107605 64.38321l-2.0551147 12.328064l-187.67192 -3.4225464l-13.013123 -51.370087l1.3700714 -68.49344l37.67192 -110.27557l-2.740158 -63.013138z" fill-rule="evenodd"/><path fill="#783f04" d="m293.5223 186.14699l-9.590546 15.753281l-1.3674622 45.889755l10.958008 14.383194l7.5328064 -2.7401428l-3.422577 10.275574l15.068237 17.80841l21.916016 0l-4.107605 -58.905518l-11.64566 -33.561676z" fill-rule="evenodd"/><path stroke="#000000" stroke-width="1.0" stroke-linejoin="round" stroke-linecap="butt" d="m293.5223 186.14699l-9.590546 15.753281l-1.3674622 45.889755l10.958008 14.383194l7.5328064 -2.7401428l-3.422577 10.275574l15.068237 17.80841l21.916016 0l-4.107605 -58.905518l-11.64566 -33.561676z" fill-rule="evenodd"/><path fill="#783f04" d="m484.6168 165.59842l19.178497 27.396332l-7.5328064 24.658798l9.587921 19.86351l-19.178497 52.73755l-17.80838 -10.27298l-16.438324 -29.451447l8.220459 -63.013123z" fill-rule="evenodd"/><path stroke="#000000" stroke-width="1.0" stroke-linejoin="round" stroke-linecap="butt" d="m484.6168 165.59842l19.178497 27.396332l-7.5328064 24.658798l9.587921 19.86351l-19.178497 52.73755l-17.80838 -10.27298l-16.438324 -29.451447l8.220459 -63.013123z" fill-rule="evenodd"/><path fill="#f9cb9c" d="m296.1391 184.25197l-3.6876526 16.393707l6.9658813 14.753281l8.196838 34.42781l18.443573 1.6378021l-8.196838 -55.737534z" fill-rule="evenodd"/><path stroke="#000000" stroke-width="1.0" stroke-linejoin="round" stroke-linecap="butt" d="m296.1391 184.25197l-3.6876526 16.393707l6.9658813 14.753281l8.196838 34.42781l18.443573 1.6378021l-8.196838 -55.737534z" fill-rule="evenodd"/><path fill="#ffe599" d="m501.74014 264.22833l-19.86087 65.753296l-49.314972 47.944885l-56.165344 21.91864l-6.1653748 60.27295l-2.7401428 58.22046l193.83725 4.7926636l-2.0551147 -102.73752l12.328125 -76.02887l26.713867 -52.740173l-44.522278 -27.396332l-32.876648 -8.905502l-17.123352 1.3700714z" fill-rule="evenodd"/><path stroke="#000000" stroke-width="1.0" stroke-linejoin="round" stroke-linecap="butt" d="m501.74014 264.22833l-19.86087 65.753296l-49.314972 47.944885l-56.165344 21.91864l-6.1653748 60.27295l-2.7401428 58.22046l193.83725 4.7926636l-2.0551147 -102.73752l12.328125 -76.02887l26.713867 -52.740173l-44.522278 -27.396332l-32.876648 -8.905502l-17.123352 1.3700714z" fill-rule="evenodd"/><path fill="#000000" d="m345.57742 420.3937l13.698181 -7.535431l2.7401428 9.587921l26.026245 0l16.438324 -9.587921l4.1102295 13.013123l-12.328064 15.068237l-15.068268 -14.383209l-19.178467 0l-10.960632 10.960632z" fill-rule="evenodd"/><path stroke="#000000" stroke-width="1.0" stroke-linejoin="round" stroke-linecap="butt" d="m345.57742 420.3937l13.698181 -7.535431l2.7401428 9.587921l26.026245 0l16.438324 -9.587921l4.1102295 13.013123l-12.328064 15.068237l-15.068268 -14.383209l-19.178467 0l-10.960632 10.960632z" fill-rule="evenodd"/><path fill="#f9cb9c" d="m487.12335 176.05511l6.147003 13.934387l-6.9658813 30.32808l-7.7874146 21.312347l-14.75589 4.9160004l-6.5564575 -13.112854l-2.868744 -32.37796l9.425201 -19.671906z" fill-rule="evenodd"/><path stroke="#000000" stroke-width="1.0" stroke-linejoin="round" stroke-linecap="butt" d="m487.12335 176.05511l6.147003 13.934387l-6.9658813 30.32808l-7.7874146 21.312347l-14.75589 4.9160004l-6.5564575 -13.112854l-2.868744 -32.37796l9.425201 -19.671906z" fill-rule="evenodd"/><path fill="#000000" d="m400.59055 476.3937l-13.698151 -7.535431l-2.7401733 9.587921l-26.026245 0l-16.438324 -9.587921l-4.1102295 13.013123l12.3280945 15.068237l15.068237 -14.383209l19.178467 0l10.960632 10.960632z" fill-rule="evenodd"/><path stroke="#000000" stroke-width="1.0" stroke-linejoin="round" stroke-linecap="butt" d="m400.59055 476.3937l-13.698151 -7.535431l-2.7401733 9.587921l-26.026245 0l-16.438324 -9.587921l-4.1102295 13.013123l12.3280945 15.068237l15.068237 -14.383209l19.178467 0l10.960632 10.960632z" fill-rule="evenodd"/><path fill="#fce5cd" d="m312.01575 140.2546l-4.795288 58.220474l16.438324 81.50656l47.944885 65.06824l45.204742 -4.1102295l46.577423 -63.013123l1.3700867 -102.05513l-9.590576 -51.37007l-38.356934 -30.136482l-71.916016 2.740158z" fill-rule="evenodd"/><path stroke="#000000" stroke-width="1.0" stroke-linejoin="round" stroke-linecap="butt" d="m312.01575 140.2546l-4.795288 58.220474l16.438324 81.50656l47.944885 65.06824l45.204742 -4.1102295l46.577423 -63.013123l1.3700867 -102.05513l-9.590576 -51.37007l-38.356934 -30.136482l-71.916016 2.740158z" fill-rule="evenodd"/><path fill="#783f04" d="m310.64566 139.56955l-4.1102295 53.4252l9.590546 44.52231l-6.165344 -4.1102295l-10.27298 -43.152237l-19.863495 -5.4776917l-3.7664185 -15.2782135l38.013123 -75.8189l-11.64566 11.643051l19.863525 -8.21785l-14.383209 13.698158l28.08136 -10.2729645l-25.341217 23.286095z" fill-rule="evenodd"/><path stroke="#000000" stroke-width="1.0" stroke-linejoin="round" stroke-linecap="butt" d="m310.64566 139.56955l-4.1102295 53.4252l9.590546 44.52231l-6.165344 -4.1102295l-10.27298 -43.152237l-19.863495 -5.4776917l-3.7664185 -15.2782135l38.013123 -75.8189l-11.64566 11.643051l19.863525 -8.21785l-14.383209 13.698158l28.08136 -10.2729645l-25.341217 23.286095z" fill-rule="evenodd"/><path fill="#783f04" d="m456.53543 129.29659l6.165344 55.480316l2.0551453 32.876648l-6.850403 15.068237l8.220459 -4.1102448l5.4776917 -38.35695l15.753296 -13.013123l13.291321 7.010498l4.5065613 -12.706039l-18.850372 -41.393692l-18.126007 -12.498695l2.7401733 -17.808395l-12.3280945 6.8477707z" fill-rule="evenodd"/><path stroke="#000000" stroke-width="1.0" stroke-linejoin="round" stroke-linecap="butt" d="m456.53543 129.29659l6.165344 55.480316l2.0551453 32.876648l-6.850403 15.068237l8.220459 -4.1102448l5.4776917 -38.35695l15.753296 -13.013123l13.291321 7.010498l4.5065613 -12.706039l-18.850372 -41.393692l-18.126007 -12.498695l2.7401733 -17.808395l-12.3280945 6.8477707z" fill-rule="evenodd"/><path fill="#ffffff" d="m417.2047 423.18634l29.509186 0.40945435l24.178497 19.262482l3.690277 31.968506l-17.624664 25.0l-31.556427 2.4566956l-24.590546 -12.293976l-6.147003 -29.099731l11.065613 -24.178497z" fill-rule="evenodd"/><path stroke="#000000" stroke-width="1.0" stroke-linejoin="round" stroke-linecap="butt" d="m417.2047 423.18634l29.509186 0.40945435l24.178497 19.262482l3.690277 31.968506l-17.624664 25.0l-31.556427 2.4566956l-24.590546 -12.293976l-6.147003 -29.099731l11.065613 -24.178497z" fill-rule="evenodd"/><path fill="#c9daf8" d="m409.91077 440.39896l13.934387 -10.246735l18.031494 -1.6377869l11.8845215 4.91864l12.706024 15.981628l2.45932 16.393707l-4.0997314 13.524933l-9.015747 12.706024l-22.54068 6.1469727l-18.031525 -9.015747l-10.656158 -12.29657l-4.0997314 -19.262482z" fill-rule="evenodd"/><path stroke="#000000" stroke-width="1.0" stroke-linejoin="round" stroke-linecap="butt" d="m409.91077 440.39896l13.934387 -10.246735l18.031494 -1.6377869l11.8845215 4.91864l12.706024 15.981628l2.45932 16.393707l-4.0997314 13.524933l-9.015747 12.706024l-22.54068 6.1469727l-18.031525 -9.015747l-10.656158 -12.29657l-4.0997314 -19.262482z" fill-rule="evenodd"/><path fill="#ffe599" d="m414.82678 480.97375l11.065613 -20.493439l13.524933 -0.40945435l15.165344 19.262482l-29.509186 3.2781982z" fill-rule="evenodd"/><path stroke="#000000" stroke-width="1.0" stroke-linejoin="round" stroke-linecap="butt" d="m414.82678 480.97375l11.065613 -20.493439l13.524933 -0.40945435l15.165344 19.262482l-29.509186 3.2781982z" fill-rule="evenodd"/><path fill="#76a5af" d="m416.4672 482.2021l13.934387 -8.606293l36.065613 -0.8188782l-11.8845215 15.16272l-17.624664 6.5590515l-15.16272 -4.0997314z" fill-rule="evenodd"/><path stroke="#000000" stroke-width="1.0" stroke-linejoin="round" stroke-linecap="butt" d="m416.4672 482.2021l13.934387 -8.606293l36.065613 -0.8188782l-11.8845215 15.16272l-17.624664 6.5590515l-15.16272 -4.0997314z" fill-rule="evenodd"/><path fill="#4a86e8" d="m444.33597 462.53018l10.246704 -2.45932l-8.196838 11.887146z" fill-rule="evenodd"/><path stroke="#000000" stroke-width="1.0" stroke-linejoin="round" stroke-linecap="butt" d="m444.33597 462.53018l10.246704 -2.45932l-8.196838 11.887146z" fill-rule="evenodd"/><path fill="#000000" fill-opacity="0.0" d="m427.9265 453.51443l16.409454 9.417328" fill-rule="evenodd"/><path stroke="#000000" stroke-width="1.0" stroke-linejoin="round" stroke-linecap="butt" d="m427.9265 453.51443l16.409454 9.417328" fill-rule="evenodd"/><path fill="#4a86e8" d="m421.23358 462.52887l-10.246704 -2.45932l8.196838 11.887146z" fill-rule="evenodd"/><path stroke="#000000" stroke-width="1.0" stroke-linejoin="round" stroke-linecap="butt" d="m421.23358 462.52887l-10.246704 -2.45932l8.196838 11.887146z" fill-rule="evenodd"/><path fill="#000000" fill-opacity="0.0" d="m437.21783 453.51312l-16.409424 9.417328" fill-rule="evenodd"/><path stroke="#000000" stroke-width="1.0" stroke-linejoin="round" stroke-linecap="butt" d="m437.21783 453.51312l-16.409424 9.417328" fill-rule="evenodd"/><path fill="#783f04" d="m404.84253 179.14436l24.304443 -11.645676l12.404205 10.128616l5.5695496 8.606293l-7.3411865 1.0131226l-4.0498962 -7.5957947l-11.139099 -0.5065613l-18.989502 4.5590515l-3.2886963 -3.0393677z" fill-rule="evenodd"/><path stroke="#000000" stroke-width="1.0" stroke-linejoin="round" stroke-linecap="butt" d="m404.84253 179.14436l24.304443 -11.645676l12.404205 10.128616l5.5695496 8.606293l-7.3411865 1.0131226l-4.0498962 -7.5957947l-11.139099 -0.5065613l-18.989502 4.5590515l-3.2886963 -3.0393677z" fill-rule="evenodd"/><path fill="#783f04" d="m324.33597 178.6378l24.811005 0l9.874023 8.102356l-3.2913513 5.0629883l-12.152222 -6.076111l-15.191589 -2.2782135l-2.2782288 5.8241425l-5.3149414 -1.5196838z" fill-rule="evenodd"/><path stroke="#000000" stroke-width="1.0" stroke-linejoin="round" stroke-linecap="butt" d="m324.33597 178.6378l24.811005 0l9.874023 8.102356l-3.2913513 5.0629883l-12.152222 -6.076111l-15.191589 -2.2782135l-2.2782288 5.8241425l-5.3149414 -1.5196838z" fill-rule="evenodd"/><path fill="#783f04" d="m414.07086 110.14698l-57.53543 -8.220474l-41.77951 -3.4251938l-20.548584 19.863518l-6.165344 28.081367l12.3280945 21.233597l11.64566 0l1.3700867 -8.902893l10.272949 6.847763l6.850403 -18.493423l0.6850281 11.64566l11.643066 -13.015747l24.656158 -5.4776917l13.015747 4.1102448l21.916016 -16.438324z" fill-rule="evenodd"/><path stroke="#000000" stroke-width="1.0" stroke-linejoin="round" stroke-linecap="butt" d="m414.07086 110.14698l-57.53543 -8.220474l-41.77951 -3.4251938l-20.548584 19.863518l-6.165344 28.081367l12.3280945 21.233597l11.64566 0l1.3700867 -8.902893l10.272949 6.847763l6.850403 -18.493423l0.6850281 11.64566l11.643066 -13.015747l24.656158 -5.4776917l13.015747 4.1102448l21.916016 -16.438324z" fill-rule="evenodd"/><path fill="#783f04" d="m419.54855 147.62466l17.80841 0.68504333l9.590546 13.698166l4.107605 26.713913l2.0551147 -15.068237l-0.6850281 -30.13649l-10.27298 -11.645676l-13.013123 -8.217842l-15.068237 10.272972z" fill-rule="evenodd"/><path stroke="#000000" stroke-width="1.0" stroke-linejoin="round" stroke-linecap="butt" d="m419.54855 147.62466l17.80841 0.68504333l9.590546 13.698166l4.107605 26.713913l2.0551147 -15.068237l-0.6850281 -30.13649l-10.27298 -11.645676l-13.013123 -8.217842l-15.068237 10.272972z" fill-rule="evenodd"/><path fill="#4a86e8" d="m275.7139 162.17323l24.656189 -14.383209l45.207336 -11.643036l30.821533 -0.68504333l54.11023 1.3700714l37.66928 6.8477783l33.561676 13.698166l-13.698151 -78.081375l-32.876648 -39.041992l-52.055115 -17.12336l-48.629913 2.740158l-35.61679 17.8084l-29.451447 36.301838l-8.217865 11.6430435l-5.480316 15.068245l-4.1102295 37.671906z" fill-rule="evenodd"/><path stroke="#000000" stroke-width="1.0" stroke-linejoin="round" stroke-linecap="butt" d="m275.7139 162.17323l24.656189 -14.383209l45.207336 -11.643036l30.821533 -0.68504333l54.11023 1.3700714l37.66928 6.8477783l33.561676 13.698166l-13.698151 -78.081375l-32.876648 -39.041992l-52.055115 -17.12336l-48.629913 2.740158l-35.61679 17.8084l-29.451447 36.301838l-8.217865 11.6430435l-5.480316 15.068245l-4.1102295 37.671906z" fill-rule="evenodd"/><path fill="#000000" d="m882.94226 -39.82546l0 595.36285l746.7612 0l0 -589.9752z" fill-rule="evenodd"/><path stroke="#000000" stroke-width="1.0" stroke-linejoin="round" stroke-linecap="butt" d="m882.94226 -39.82546l0 595.36285l746.7612 0l0 -589.9752z" fill-rule="evenodd"/><path fill="#45818e" d="m902.30444 354.7047l13.698181 -16.438293l30.821533 -19.178497l65.06824 -38.35434l42.46454 -32.19159l23.288696 -5.480316l26.711304 -39.727036l97.26245 2.05513l200.0 39.041992l41.77954 1.3700714l65.753296 41.094498l43.83728 49.31494l2.0524902 45.892395l6.1654053 32.876648l10.958008 24.656158l0 65.753296l-113.69824 -3.422577l-4.795288 -21.233612l-2.0524902 20.548584l-373.97375 0l-24.656128 -104.79529l-63.015747 4.795288l-4.107605 25.341187l-15.75592 7.535431l4.795288 20.545929l-10.958008 12.330719l-23.288696 32.876648l-39.039368 1.3700867z" fill-rule="evenodd"/><path stroke="#000000" stroke-width="1.0" stroke-linejoin="round" stroke-linecap="butt" d="m902.30444 354.7047l13.698181 -16.438293l30.821533 -19.178497l65.06824 -38.35434l42.46454 -32.19159l23.288696 -5.480316l26.711304 -39.727036l97.26245 2.05513l200.0 39.041992l41.77954 1.3700714l65.753296 41.094498l43.83728 49.31494l2.0524902 45.892395l6.1654053 32.876648l10.958008 24.656158l0 65.753296l-113.69824 -3.422577l-4.795288 -21.233612l-2.0524902 20.548584l-373.97375 0l-24.656128 -104.79529l-63.015747 4.795288l-4.107605 25.341187l-15.75592 7.535431l4.795288 20.545929l-10.958008 12.330719l-23.288696 32.876648l-39.039368 1.3700867z" fill-rule="evenodd"/><path fill="#ffe599" d="m1126.2756 193.06168l65.06824 8.220474l-4.795288 59.587936l36.986816 73.973755l50.68506 42.46457l-3.425171 49.31494l-4.107666 64.38321l-2.0550537 12.3280945l-187.672 -3.422577l-13.013062 -51.370087l1.3701172 -68.49344l37.671875 -110.27557l-2.7401123 -63.013138z" fill-rule="evenodd"/><path stroke="#000000" stroke-width="1.0" stroke-linejoin="round" stroke-linecap="butt" d="m1126.2756 193.06168l65.06824 8.220474l-4.795288 59.587936l36.986816 73.973755l50.68506 42.46457l-3.425171 49.31494l-4.107666 64.38321l-2.0550537 12.3280945l-187.672 -3.422577l-13.013062 -51.370087l1.3701172 -68.49344l37.671875 -110.27557l-2.7401123 -63.013138z" fill-rule="evenodd"/><path fill="#783f04" d="m1196.8241 167.03543l-9.590454 15.753281l-1.3675537 45.88977l10.958008 14.383194l7.532837 -2.740158l-3.4226074 10.275589l15.068359 17.80841l21.915894 0l-4.107544 -58.905518l-11.64563 -33.561676z" fill-rule="evenodd"/><path stroke="#000000" stroke-width="1.0" stroke-linejoin="round" stroke-linecap="butt" d="m1196.8241 167.03543l-9.590454 15.753281l-1.3675537 45.88977l10.958008 14.383194l7.532837 -2.740158l-3.4226074 10.275589l15.068359 17.80841l21.915894 0l-4.107544 -58.905518l-11.64563 -33.561676z" fill-rule="evenodd"/><path fill="#783f04" d="m1387.9186 146.48688l19.178589 27.396332l-7.532837 24.658783l9.587891 19.863525l-19.178467 52.73752l-17.80835 -10.272949l-16.438354 -29.451447l8.220459 -63.013123z" fill-rule="evenodd"/><path stroke="#000000" stroke-width="1.0" stroke-linejoin="round" stroke-linecap="butt" d="m1387.9186 146.48688l19.178589 27.396332l-7.532837 24.658783l9.587891 19.863525l-19.178467 52.73752l-17.80835 -10.272949l-16.438354 -29.451447l8.220459 -63.013123z" fill-rule="evenodd"/><path fill="#f9cb9c" d="m1199.4409 165.14043l-3.687622 16.393692l6.9658203 14.753281l8.196899 34.427826l18.443604 1.6377869l-8.196899 -55.737534z" fill-rule="evenodd"/><path stroke="#000000" stroke-width="1.0" stroke-linejoin="round" stroke-linecap="butt" d="m1199.4409 165.14043l-3.687622 16.393692l6.9658203 14.753281l8.196899 34.427826l18.443604 1.6377869l-8.196899 -55.737534z" fill-rule="evenodd"/><path fill="#ffe599" d="m1405.042 245.11679l-19.86084 65.753296l-49.315063 47.944885l-56.165283 21.91861l-6.1654053 60.27298l-2.7401123 58.22046l193.83728 4.7926636l-2.0551758 -102.73752l12.328125 -76.02887l26.713867 -52.740173l-44.522217 -27.396332l-32.87671 -8.905502l-17.123291 1.3700714z" fill-rule="evenodd"/><path stroke="#000000" stroke-width="1.0" stroke-linejoin="round" stroke-linecap="butt" d="m1405.042 245.11679l-19.86084 65.753296l-49.315063 47.944885l-56.165283 21.91861l-6.1654053 60.27298l-2.7401123 58.22046l193.83728 4.7926636l-2.0551758 -102.73752l12.328125 -76.02887l26.713867 -52.740173l-44.522217 -27.396332l-32.87671 -8.905502l-17.123291 1.3700714z" fill-rule="evenodd"/><path fill="#000000" d="m1248.8793 401.28217l13.69812 -7.5354614l2.7402344 9.587952l26.026245 0l16.438232 -9.587952l4.1102295 13.013153l-12.328003 15.068237l-15.068237 -14.383209l-19.178467 0l-10.960693 10.960632z" fill-rule="evenodd"/><path stroke="#000000" stroke-width="1.0" stroke-linejoin="round" stroke-linecap="butt" d="m1248.8793 401.28217l13.69812 -7.5354614l2.7402344 9.587952l26.026245 0l16.438232 -9.587952l4.1102295 13.013153l-12.328003 15.068237l-15.068237 -14.383209l-19.178467 0l-10.960693 10.960632z" fill-rule="evenodd"/><path fill="#f9cb9c" d="m1390.4252 156.94357l6.1469727 13.934387l-6.9658203 30.32808l-7.7874756 21.312332l-14.755859 4.9160156l-6.5563965 -13.112869l-2.8687744 -32.377945l9.425171 -19.67192z" fill-rule="evenodd"/><path stroke="#000000" stroke-width="1.0" stroke-linejoin="round" stroke-linecap="butt" d="m1390.4252 156.94357l6.1469727 13.934387l-6.9658203 30.32808l-7.7874756 21.312332l-14.755859 4.9160156l-6.5563965 -13.112869l-2.8687744 -32.377945l9.425171 -19.67192z" fill-rule="evenodd"/><path fill="#000000" d="m1303.8923 457.28217l-13.69812 -7.5354614l-2.7401123 9.587952l-26.026245 0l-16.438354 -9.587952l-4.1102295 13.013153l12.328125 15.068237l15.068237 -14.383209l19.178467 0l10.960571 10.960632z" fill-rule="evenodd"/><path stroke="#000000" stroke-width="1.0" stroke-linejoin="round" stroke-linecap="butt" d="m1303.8923 457.28217l-13.69812 -7.5354614l-2.7401123 9.587952l-26.026245 0l-16.438354 -9.587952l-4.1102295 13.013153l12.328125 15.068237l15.068237 -14.383209l19.178467 0l10.960571 10.960632z" fill-rule="evenodd"/><path fill="#fce5cd" d="m1215.3176 121.14304l-4.795288 58.220467l16.438232 81.50658l47.944946 65.06824l45.204712 -4.1102295l46.577393 -63.013123l1.3701172 -102.05513l-9.590576 -51.37008l-38.356934 -30.136482l-71.916016 2.740158z" fill-rule="evenodd"/><path stroke="#000000" stroke-width="1.0" stroke-linejoin="round" stroke-linecap="butt" d="m1215.3176 121.14304l-4.795288 58.220467l16.438232 81.50658l47.944946 65.06824l45.204712 -4.1102295l46.577393 -63.013123l1.3701172 -102.05513l-9.590576 -51.37008l-38.356934 -30.136482l-71.916016 2.740158z" fill-rule="evenodd"/><path fill="#783f04" d="m1213.9475 120.45801l-4.1102295 53.4252l9.590576 44.52231l-6.1654053 -4.1102448l-10.272949 -43.15222l-19.863525 -5.4776917l-3.7663574 -15.2782135l38.01306 -75.8189l-11.64563 11.6430435l19.863525 -8.21785l-14.383179 13.698166l28.081299 -10.272972l-25.341187 23.286095z" fill-rule="evenodd"/><path stroke="#000000" stroke-width="1.0" stroke-linejoin="round" stroke-linecap="butt" d="m1213.9475 120.45801l-4.1102295 53.4252l9.590576 44.52231l-6.1654053 -4.1102448l-10.272949 -43.15222l-19.863525 -5.4776917l-3.7663574 -15.2782135l38.01306 -75.8189l-11.64563 11.6430435l19.863525 -8.21785l-14.383179 13.698166l28.081299 -10.272972l-25.341187 23.286095z" fill-rule="evenodd"/><path fill="#783f04" d="m1359.8373 110.185036l6.1654053 55.480324l2.0550537 32.876633l-6.850342 15.068237l8.220459 -4.1102295l5.477661 -38.35695l15.753296 -13.013123l13.29126 7.010498l4.506592 -12.706039l-18.850342 -41.393707l-18.125977 -12.498688l2.7401123 -17.808395l-12.328125 6.8477707z" fill-rule="evenodd"/><path stroke="#000000" stroke-width="1.0" stroke-linejoin="round" stroke-linecap="butt" d="m1359.8373 110.185036l6.1654053 55.480324l2.0550537 32.876633l-6.850342 15.068237l8.220459 -4.1102295l5.477661 -38.35695l15.753296 -13.013123l13.29126 7.010498l4.506592 -12.706039l-18.850342 -41.393707l-18.125977 -12.498688l2.7401123 -17.808395l-12.328125 6.8477707z" fill-rule="evenodd"/><path fill="#ffffff" d="m1320.5066 404.0748l29.509155 0.40945435l24.178467 19.262451l3.6903076 31.968506l-17.624634 25.0l-31.556519 2.4566956l-24.590454 -12.293945l-6.1470947 -29.099731l11.065674 -24.178497z" fill-rule="evenodd"/><path stroke="#000000" stroke-width="1.0" stroke-linejoin="round" stroke-linecap="butt" d="m1320.5066 404.0748l29.509155 0.40945435l24.178467 19.262451l3.6903076 31.968506l-17.624634 25.0l-31.556519 2.4566956l-24.590454 -12.293945l-6.1470947 -29.099731l11.065674 -24.178497z" fill-rule="evenodd"/><path fill="#c9daf8" d="m1313.2126 421.2874l13.934326 -10.246735l18.031494 -1.6377869l11.8845215 4.91864l12.706055 15.981628l2.4593506 16.393677l-4.0997314 13.524933l-9.015747 12.706055l-22.540771 6.1469727l-18.031494 -9.015747l-10.656128 -12.29657l-4.0997314 -19.262482z" fill-rule="evenodd"/><path stroke="#000000" stroke-width="1.0" stroke-linejoin="round" stroke-linecap="butt" d="m1313.2126 421.2874l13.934326 -10.246735l18.031494 -1.6377869l11.8845215 4.91864l12.706055 15.981628l2.4593506 16.393677l-4.0997314 13.524933l-9.015747 12.706055l-22.540771 6.1469727l-18.031494 -9.015747l-10.656128 -12.29657l-4.0997314 -19.262482z" fill-rule="evenodd"/><path fill="#ffe599" d="m1318.1287 461.8622l11.065552 -20.493439l13.524902 -0.40945435l15.165405 19.262451l-29.509155 3.2782288z" fill-rule="evenodd"/><path stroke="#000000" stroke-width="1.0" stroke-linejoin="round" stroke-linecap="butt" d="m1318.1287 461.8622l11.065552 -20.493439l13.524902 -0.40945435l15.165405 19.262451l-29.509155 3.2782288z" fill-rule="evenodd"/><path fill="#76a5af" d="m1319.769 463.09055l13.934326 -8.606293l36.065674 -0.8189087l-11.8845215 15.16275l-17.624634 6.5590515l-15.16272 -4.0997314z" fill-rule="evenodd"/><path stroke="#000000" stroke-width="1.0" stroke-linejoin="round" stroke-linecap="butt" d="m1319.769 463.09055l13.934326 -8.606293l36.065674 -0.8189087l-11.8845215 15.16275l-17.624634 6.5590515l-15.16272 -4.0997314z" fill-rule="evenodd"/><path fill="#4a86e8" d="m1347.6378 443.41864l10.246704 -2.45932l-8.196899 11.887146z" fill-rule="evenodd"/><path stroke="#000000" stroke-width="1.0" stroke-linejoin="round" stroke-linecap="butt" d="m1347.6378 443.41864l10.246704 -2.45932l-8.196899 11.887146z" fill-rule="evenodd"/><path fill="#000000" fill-opacity="0.0" d="m1331.2284 434.4029l16.409424 9.417328" fill-rule="evenodd"/><path stroke="#000000" stroke-width="1.0" stroke-linejoin="round" stroke-linecap="butt" d="m1331.2284 434.4029l16.409424 9.417328" fill-rule="evenodd"/><path fill="#4a86e8" d="m1324.5354 443.41733l-10.246704 -2.45932l8.196899 11.887146z" fill-rule="evenodd"/><path stroke="#000000" stroke-width="1.0" stroke-linejoin="round" stroke-linecap="butt" d="m1324.5354 443.41733l-10.246704 -2.45932l8.196899 11.887146z" fill-rule="evenodd"/><path fill="#000000" fill-opacity="0.0" d="m1340.5197 434.40158l-16.409424 9.417328" fill-rule="evenodd"/><path stroke="#000000" stroke-width="1.0" stroke-linejoin="round" stroke-linecap="butt" d="m1340.5197 434.40158l-16.409424 9.417328" fill-rule="evenodd"/><path fill="#783f04" d="m1308.1444 160.0328l24.304443 -11.64566l12.404175 10.128601l5.56958 8.606293l-7.3411865 1.0131378l-4.0499268 -7.59581l-11.13916 -0.5065613l-18.989502 4.5590515l-3.2886963 -3.0393677z" fill-rule="evenodd"/><path stroke="#000000" stroke-width="1.0" stroke-linejoin="round" stroke-linecap="butt" d="m1308.1444 160.0328l24.304443 -11.64566l12.404175 10.128601l5.56958 8.606293l-7.3411865 1.0131378l-4.0499268 -7.59581l-11.13916 -0.5065613l-18.989502 4.5590515l-3.2886963 -3.0393677z" fill-rule="evenodd"/><path fill="#783f04" d="m1227.6378 159.52625l24.811035 0l9.874023 8.102371l-3.2913818 5.0629883l-12.152222 -6.076126l-15.19165 -2.2782135l-2.2781982 5.8241577l-5.3149414 -1.5196838z" fill-rule="evenodd"/><path stroke="#000000" stroke-width="1.0" stroke-linejoin="round" stroke-linecap="butt" d="m1227.6378 159.52625l24.811035 0l9.874023 8.102371l-3.2913818 5.0629883l-12.152222 -6.076126l-15.19165 -2.2782135l-2.2781982 5.8241577l-5.3149414 -1.5196838z" fill-rule="evenodd"/><path fill="#783f04" d="m1317.3727 91.03543l-57.5354 -8.220467l-41.77954 -3.4252014l-20.548584 19.863518l-6.165283 28.081367l12.328003 21.23359l11.645752 0l1.3699951 -8.902878l10.272949 6.847763l6.850464 -18.493439l0.6850586 11.645676l11.643066 -13.015755l24.656128 -5.4776917l13.015747 4.110237l21.916016 -16.438316z" fill-rule="evenodd"/><path stroke="#000000" stroke-width="1.0" stroke-linejoin="round" stroke-linecap="butt" d="m1317.3727 91.03543l-57.5354 -8.220467l-41.77954 -3.4252014l-20.548584 19.863518l-6.165283 28.081367l12.328003 21.23359l11.645752 0l1.3699951 -8.902878l10.272949 6.847763l6.850464 -18.493439l0.6850586 11.645676l11.643066 -13.015755l24.656128 -5.4776917l13.015747 4.110237l21.916016 -16.438316z" fill-rule="evenodd"/><path fill="#783f04" d="m1322.8503 128.51312l17.808472 0.68504333l9.590576 13.698166l4.107544 26.713898l2.0551758 -15.068237l-0.6850586 -30.136482l-10.272949 -11.645668l-13.013184 -8.21785l-15.068237 10.272972z" fill-rule="evenodd"/><path stroke="#000000" stroke-width="1.0" stroke-linejoin="round" stroke-linecap="butt" d="m1322.8503 128.51312l17.808472 0.68504333l9.590576 13.698166l4.107544 26.713898l2.0551758 -15.068237l-0.6850586 -30.136482l-10.272949 -11.645668l-13.013184 -8.21785l-15.068237 10.272972z" fill-rule="evenodd"/><path fill="#4a86e8" d="m1179.0157 143.06168l24.656128 -14.383194l45.207397 -11.643051l30.821533 -0.6850357l54.11023 1.370079l37.66931 6.8477707l33.561646 13.698158l-13.69812 -78.08136l-32.87671 -39.041992l-52.055054 -17.12336l-48.630005 2.7401571l-35.6167 17.8084l-29.451538 36.301838l-8.217773 11.6430435l-5.4803467 15.068245l-4.1102295 37.671913z" fill-rule="evenodd"/><path stroke="#000000" stroke-width="1.0" stroke-linejoin="round" stroke-linecap="butt" d="m1179.0157 143.06168l24.656128 -14.383194l45.207397 -11.643051l30.821533 -0.6850357l54.11023 1.370079l37.66931 6.8477707l33.561646 13.698158l-13.69812 -78.08136l-32.87671 -39.041992l-52.055054 -17.12336l-48.630005 2.7401571l-35.6167 17.8084l-29.451538 36.301838l-8.217773 11.6430435l-5.4803467 15.068245l-4.1102295 37.671913z" fill-rule="evenodd"/></g></svg>